
        <svg xmlns="http://www.w3.org/2000/svg" xmlns:xlink="http://www.w3.org/1999/xlink" version="1.1" width="2766.9555730511534" 
        height="3197.639683789368" viewBox="0 0 2766.9555730511534 3197.639683789368">
			<rect fill="#111111" width="2766.9555730511534" height="3197.639683789368"/>
			<g transform="scale(9.881984189468405) translate(10, 10)">
				<defs id="SvgjsDefs1438"></defs><g id="SvgjsG1439" featureKey="symbolFeature-0" transform="matrix(1.0105968712693671,0,0,1.0105968712693671,79.01902968100586,-5.278490630128114)" fill="#c8e7ed"><path xmlns="http://www.w3.org/2000/svg" fill="#c8e7ed" d="M92.3,63.2C89.7,59.1,81.5,47.6,81,46.9c-0.8-1.2-2-2-3.4-2.2c-1.5-0.3-3.1,0.1-4.4,1  c-2.6,1.8-3.4,5.3-1.7,7.8l1.9,3.7l-9.7-3.9L53.2,31.6l5.9,3c3.2,2,7.3,1,9.3-2.2c1-1.5,1.3-3.4,0.9-5.1c-0.4-1.8-1.5-3.3-3-4.3  c-0.9-0.6-16.4-11-21.9-14.4c-6.9-4.2-15.7-4.5-23.5-0.8C14.7,10.7,10,15.8,7.6,22.1C5.2,28.4,5.4,35.3,8,41.5c0,0,0,0,0,0  l12.4,26.6c1.2,2.5,3.6,3.9,6.2,3.9c1,0,1.9-0.2,2.9-0.6c1.3-0.6,2.3-1.5,2.9-2.6l1.6,3.4c0.8,1.7,2.1,2.9,3.9,3.5  c0.8,0.3,1.5,0.4,2.3,0.4c0.9,0,1.7-0.2,2.6-0.5L44,76c-0.7,0.6-1.3,1.3-1.7,2.2c-0.7,1.5-0.7,3-0.1,4.5c0.6,1.4,1.6,2.4,3,2.9  l20.9,8.2c0,0,0,0,0,0c2.2,0.8,4.5,1.2,6.7,1.2c8.3,0,16.4-5,20.1-13.1C95.9,75.5,95.6,68.5,92.3,63.2z M38.9,72.8  c-0.9-0.3-1.7-1-2.1-1.9l-3.9-8.3c0-0.1-0.1-0.2-0.1-0.2l-8.3-17.6c-0.4-0.8-1.3-1.1-2-0.7c-0.8,0.4-1.1,1.3-0.7,2l8.3,17.6  c0.9,1.9,0.1,4.1-1.8,5c-1.9,0.9-4.1,0.1-5-1.8L10.8,40.3c-4.9-11.4,0.1-24.4,11.3-29.7c6.9-3.2,14.6-3,20.7,0.7  c5.5,3.3,21.7,14.2,21.8,14.3c0,0,0,0,0,0c0.9,0.5,1.4,1.4,1.7,2.4c0.2,1,0,2-0.5,2.9c-0.5,0.9-1.4,1.4-2.4,1.7c-1,0.2-2,0-2.9-0.5  c0,0-0.1,0-0.1-0.1l-10.9-5.6c-0.5-0.3-1.1-0.2-1.6,0.1c-5.5,3.9-14.4,3.2-19-1.4c-0.6-0.6-1.6-0.6-2.2,0c-0.6,0.6-0.6,1.6,0,2.2  c5.4,5.4,15.2,6.4,22,2.4l10.5,22L55.7,50c-1.7-0.7-3.5-0.4-5.1,0.5l-4.7-10c-0.4-0.8-1.3-1.1-2-0.7c-0.8,0.4-1.1,1.3-0.7,2l5.2,11  c-0.1,0.1-0.1,0.2-0.2,0.4c-0.4,0.9-0.6,1.8-0.5,2.8l-1.5-0.6c-1.6-0.6-3.3-0.5-4.8,0.3l-3.3-7c-0.4-0.8-1.3-1.1-2-0.7  c-0.8,0.4-1.1,1.3-0.7,2l3.7,7.9c-0.1,0.2-0.2,0.4-0.3,0.7c-0.7,1.5-0.7,3-0.1,4.5c0.5,1.1,1.3,2,2.3,2.6c-0.7,0.6-1.3,1.3-1.7,2.2  c-0.7,1.5-0.7,3-0.1,4.5c0.1,0.2,0.2,0.4,0.3,0.6C39.2,72.9,39.1,72.8,38.9,72.8z M90.2,80.6C86.1,89.5,76,94.1,67.2,91l-20.9-8.2  c-0.6-0.2-1-0.7-1.3-1.3c-0.3-0.6-0.2-1.4,0.1-2.1c0.6-1.4,2.3-2.1,3.6-1.6l13.9,5.5c0.8,0.3,1.7-0.1,2-0.9c0.3-0.8-0.1-1.7-0.9-2  L49.8,75c0,0-0.2-0.1-0.2-0.1c0,0-6.8-2.7-7-2.8c-0.4-0.2-0.6-0.6-0.8-1c-0.3-0.6-0.2-1.4,0.1-2.1c0.3-0.8,1-1.3,1.7-1.6  c0.6-0.2,15.8,5.5,15.8,5.5c0.8,0.3,1.7-0.1,2-0.9c0.3-0.8-0.1-1.7-0.9-2l-17.9-7c-0.6-0.2-1-0.7-1.3-1.3c-0.3-0.6-0.2-1.4,0.1-2.1  c0.3-0.6,0.7-1,1.2-1.4c0.7-0.4,1.6-0.6,2.4-0.3l20.8,8.2c0.8,0.3,1.7-0.1,2-0.9c0.3-0.8-0.1-1.7-0.9-2l-14.6-5.8c0,0,0,0,0,0  c-0.7-0.3-1.2-0.8-1.4-1.4c-0.3-0.6-0.2-1.3,0-1.9c0.2-0.5,0.6-0.9,1-1.2c0.8-0.6,1.8-0.8,2.6-0.4L76,61.5c0.6,0.2,1.3,0.1,1.7-0.4  c0.4-0.5,0.5-1.2,0.2-1.7c0,0-4-7.5-4-7.6c-0.8-1.2-0.4-2.8,0.9-3.7c0.6-0.4,1.4-0.6,2.1-0.5c0.6,0.1,1.1,0.5,1.5,1c0,0,0,0,0,0  c0.1,0.1,8.6,12.1,11.2,16.2C92.5,69.2,92.7,75.1,90.2,80.6z"></path></g><g id="SvgjsG1440" featureKey="nameFeature-0" transform="matrix(4.937333854032992,0,0,4.937333854032992,-5.924799683117892,51.95186005609909)" fill="#ffffc2"><path d="M12.36 34.76 l0 2.68 c0 0.68 0 1.4 -0.08 2.08 c-0.04 0.4 -0.08 0.8 -0.16 1.16 l0 0.12 c0 0.04 -0.04 0.08 -0.04 0.16 l0 0.04 c-0.8 3.84 -4.8 3.6 -4.8 3.6 l-6.08 0 l0 -16.32 l0 -16.32 l5.92 0 s4.76 -0.2 4.88 7.6 l0 0.28 l0 0.32 c0 0.56 0 1.08 -0.04 1.64 c-0.08 0.88 -0.24 1.72 -0.48 2.56 c-0.12 0.44 -0.32 0.84 -0.52 1.24 c-0.28 0.48 -0.64 0.92 -1.04 1.28 l-0.2 0.16 c-0.04 0.04 -0.04 0.12 0 0.16 l0.24 0.16 c0.4 0.28 0.76 0.68 1.08 1.12 c0.2 0.32 0.36 0.64 0.52 1 c0.24 0.56 0.4 1.16 0.52 1.76 c0.12 0.56 0.2 1.12 0.24 1.72 s0.04 1.2 0.04 1.8 z M4.8 20.32 l0 3.2 l0 2.2 l1.64 0 s1.16 0.32 1.76 -2.56 c0.08 -0.28 0.12 -0.6 0.16 -0.92 c0.04 -0.48 0.04 -0.96 0.04 -1.44 l0 -1.24 c0 -0.48 0 -0.96 -0.04 -1.48 c-0.04 -0.4 -0.12 -0.76 -0.24 -1.16 c-0.04 -0.24 -0.16 -0.44 -0.28 -0.64 c-0.2 -0.32 -0.44 -0.48 -0.76 -0.6 c-0.2 -0.08 -0.36 -0.08 -0.56 -0.08 l-1.4 0 c-0.32 0 -0.32 0 -0.32 0.36 l0 4.36 z M8.76 37.6 l0 -3.36 c0 -0.52 -0.04 -1 -0.08 -1.48 c0 -0.12 -0.04 -0.24 -0.04 -0.36 c-0.4 -3.24 -1.96 -3.04 -1.96 -3.04 l-1.88 0 l0 2 l0 4.2 l0 1.48 l0 3.48 c0 0.12 0 0.24 0.04 0.36 c0 0.04 0.04 0.08 0.04 0.08 l0.16 0 l1.88 0 l0.28 0 c0.48 -0.08 0.84 -0.32 1.08 -0.76 c0.08 -0.12 0.12 -0.24 0.16 -0.36 c0.08 -0.2 0.16 -0.44 0.2 -0.64 c0.08 -0.52 0.12 -1.08 0.12 -1.6 z M29.450000000000003 25.72 l0.04 6.68 l0 0.92 l0 2.24 l0 1.48 l0 1.32 l0 6.24 l-3.6 0 l0 -16.32 l0 -16.32 l3.56 0 l0 13.76 z M53.78000000000001 35.56 l0 0.32 c0.04 0.4 0.08 0.8 0.08 1.24 l0 0.36 l-0.04 0 l0 0.12 c0 0.52 0 1.04 -0.08 1.56 c-0.16 1.6 -1.04 5.44 -5.32 5.44 c-4.56 0 -5.24 -4.64 -5.32 -5.96 c-0.04 -0.36 -0.04 -0.72 -0.04 -1.08 l0 -0.96 l0 -2.2 l3.6 0 l0 3.24 c0 0.44 0 0.88 0.08 1.32 c0.04 0.28 0.12 0.56 0.2 0.84 c0.04 0.12 0.12 0.24 0.16 0.4 c0.28 0.52 0.72 0.8 1.28 0.84 c0.2 0.04 0.4 0 0.6 -0.04 c0.36 -0.08 0.64 -0.32 0.88 -0.64 c0.12 -0.16 0.2 -0.36 0.28 -0.56 c0.12 -0.32 0.16 -0.64 0.2 -0.96 c0.04 -0.4 0.08 -0.84 0.08 -1.24 l0 -1.44 c-0.16 -1.76 -0.76 -3.24 -2.24 -5.32 c-1.68 -2.36 -2.76 -4.28 -3.52 -5.8 c-1.72 -3.08 -1.6 -5.76 -1.6 -5.76 l0 -1.16 l0.08 -0.72 c0.08 -0.92 0.76 -5.44 5.44 -5.44 c4.16 0 5 3.96 5.2 5.56 c0.04 0.48 0.04 1 0.04 1.48 l0 3.28 l0 0.12 c0 0.24 0 0.24 -0.2 0.24 l-0.24 0 l-1.64 0 l-1.04 0 l-0.2 0 c-0.04 0 -0.08 -0.04 -0.08 -0.08 l0 -0.32 l0 -3.08 c0 -0.44 0 -0.88 -0.08 -1.32 c-0.04 -0.36 -0.08 -0.68 -0.2 -1.04 c-0.08 -0.2 -0.16 -0.4 -0.32 -0.6 c-0.24 -0.36 -0.56 -0.6 -0.96 -0.68 c-0.2 -0.04 -0.44 -0.04 -0.6 0 c-0.48 0.08 -0.84 0.32 -1.08 0.76 c-0.16 0.28 -0.28 0.6 -0.36 0.96 c-0.08 0.4 -0.12 0.76 -0.16 1.2 l0 0.56 l0 0.36 c0.08 2.04 0.68 3.64 2.36 5.96 l0.12 0.16 c0.68 0.92 3.96 5.56 4.56 9.44 z"></path></g><g id="SvgjsG1441" featureKey="sloganFeature-0" transform="matrix(0.7911718224805004,0,0,0.7911718224805004,21.129711070723474,287.5061441841244)" fill="#c8e7ed"><path d="M9 20.32 c-3.36 0 -7.9 -1.96 -7.9 -7.06 c0 -3.46 2.12 -7.58 7.72 -7.58 c2.32 0 4.32 0.72 4.08 1.42 l-0.26 0.78 c-0.72 2.14 -1.5 -0.6 -5.06 -0.6 c-2.86 0 -4.26 1.86 -4.26 4.74 c0 4.5 3.42 6.38 6.16 6.38 c0.36 0 2.18 -0.28 3.22 -0.94 c0.16 -0.1 0.58 0.36 0.46 0.54 c-0.86 1.26 -3.54 2.32 -4.16 2.32 z M22.5 20.32 c-4.16 0 -7.22 -3.08 -7.22 -7.24 c0 -4.04 2.88 -7.4 7.26 -7.4 c4.18 0 7.22 3.06 7.22 7.22 c0 4.06 -2.86 7.42 -7.26 7.42 z M23.28 18.96 c1.76 0 4.1 -1.16 4.1 -4.94 c0 -4.04 -2.74 -6.98 -5.62 -6.98 c-1.76 0 -4.08 1.16 -4.08 4.92 c0 4.08 2.74 7 5.6 7 z M44.92 20.2 c-0.34 0 -0.52 -0.14 -0.74 -0.38 l-9.52 -9.96 l0 7.6 c0 1.36 0.8 1.58 1.94 1.86 c0.16 0.04 0.08 0.68 -0.12 0.68 l-4.74 0 c-0.16 0 -0.28 -0.62 -0.1 -0.68 c0.84 -0.28 1.64 -0.44 1.64 -1.86 l0 -7.76 c0 -1.42 -0.22 -2.1 -0.74 -2.8 c-0.18 -0.24 -0.36 -0.4 -0.36 -0.46 c0 -0.18 0.12 -0.44 0.4 -0.44 l1.48 0 c0.2 0 0.34 0.02 0.48 0.18 l9.32 9.86 l0 -7.52 c0 -1.42 -0.9 -1.58 -1.94 -1.84 c-0.16 -0.04 -0.08 -0.68 0.12 -0.68 l4.74 0 c0.16 0 0.26 0.64 0.1 0.68 c-0.88 0.26 -1.64 0.42 -1.64 1.84 l0 7.78 c0 1.32 0.04 2.78 0.24 3.52 c0.08 0.3 -0.24 0.38 -0.56 0.38 z M61.82 20.2 c-0.34 0 -0.52 -0.14 -0.74 -0.38 l-9.52 -9.96 l0 7.6 c0 1.36 0.8 1.58 1.94 1.86 c0.16 0.04 0.08 0.68 -0.12 0.68 l-4.74 0 c-0.16 0 -0.28 -0.62 -0.1 -0.68 c0.84 -0.28 1.64 -0.44 1.64 -1.86 l0 -7.76 c0 -1.42 -0.22 -2.1 -0.74 -2.8 c-0.18 -0.24 -0.36 -0.4 -0.36 -0.46 c0 -0.18 0.12 -0.44 0.4 -0.44 l1.48 0 c0.2 0 0.34 0.02 0.48 0.18 l9.32 9.86 l0 -7.52 c0 -1.42 -0.9 -1.58 -1.94 -1.84 c-0.16 -0.04 -0.08 -0.68 0.12 -0.68 l4.74 0 c0.16 0 0.26 0.64 0.1 0.68 c-0.88 0.26 -1.64 0.42 -1.64 1.84 l0 7.78 c0 1.32 0.04 2.78 0.24 3.52 c0.08 0.3 -0.24 0.38 -0.56 0.38 z M65.36 20.04 c-0.2 0.02 -0.28 -0.68 -0.12 -0.72 c1.16 -0.3 2.06 -0.48 2.06 -1.96 l0 -8.88 c0 -1.28 -0.82 -1.62 -1.68 -1.84 c-0.16 -0.04 -0.06 -0.7 0.1 -0.68 c1.46 0.16 3.98 0.12 5.2 0.12 c1.82 0 3.14 -0.08 4.78 -0.12 c0.48 0 0.48 0.32 0.38 0.78 l-0.48 1.9 c-0.06 0.28 -0.56 0.28 -0.64 0 c-0.3 -0.98 -0.9 -1.54 -3.4 -1.54 c-1.4 0 -1.86 0.36 -1.86 1.4 l0 3.26 c0 0.52 0.26 0.62 0.66 0.62 l0.44 0 c1.62 0 3.02 -0.16 3.84 -0.9 c0.2 -0.18 0.64 -0.14 0.46 0.26 l-1.14 2.52 c-0.16 0.36 -0.46 0.32 -0.68 0.02 c-0.46 -0.64 -1.48 -0.9 -2.64 -0.9 l-0.28 0 c-0.4 0 -0.66 0.1 -0.66 0.62 l0 3.36 c0 1.14 0.48 1.56 2.14 1.56 c3.02 0 4.22 -1.38 4.7 -2.14 c0.14 -0.22 0.68 -0.12 0.68 0.22 c0 1.02 -0.86 3.04 -2.12 3.04 c-1.12 -0.06 -2.22 -0.12 -3.9 -0.12 c-1.84 0 -4.02 -0.06 -5.84 0.12 z M87.02 20.32 c-3.36 0 -7.9 -1.96 -7.9 -7.06 c0 -3.46 2.12 -7.58 7.72 -7.58 c2.32 0 4.32 0.72 4.08 1.42 l-0.26 0.78 c-0.72 2.14 -1.5 -0.6 -5.06 -0.6 c-2.86 0 -4.26 1.86 -4.26 4.74 c0 4.5 3.42 6.38 6.16 6.38 c0.36 0 2.18 -0.28 3.22 -0.94 c0.16 -0.1 0.58 0.36 0.46 0.54 c-0.86 1.26 -3.54 2.32 -4.16 2.32 z M95.97999999999999 20 c-0.18 0 -0.3 -0.64 -0.14 -0.66 c1.38 -0.18 2.3 -0.46 2.3 -1.54 l0 -9.86 c0 -0.5 -0.18 -0.66 -0.66 -0.66 l-0.54 0 c-1.9 0 -2.96 0.44 -3.36 1.3 c-0.18 0.4 -0.86 0.34 -0.78 0 c0.18 -0.72 0.34 -1.34 0.46 -2.4 c0.04 -0.38 0.26 -0.36 0.62 -0.32 c0.92 0.1 1.76 0.14 5.56 0.14 s5.14 -0.04 6.1 -0.14 c0.36 -0.04 0.7 -0.06 0.58 0.32 c-0.3 0.94 -0.5 1.68 -0.62 2.4 c-0.06 0.34 -0.6 0.36 -0.68 0 c-0.2 -0.84 -1.08 -1.3 -2.8 -1.3 l-0.62 0 c-0.48 0 -0.78 0.16 -0.78 0.66 l0 9.86 c0 1.08 0.92 1.36 2.3 1.54 c0.16 0.02 0.04 0.66 -0.14 0.66 l-6.8 0 z M114.42 20 c-0.18 0 -0.3 -0.64 -0.14 -0.66 c1.38 -0.18 2.3 -0.46 2.3 -1.54 l0 -9.86 c0 -0.5 -0.18 -0.66 -0.66 -0.66 l-0.54 0 c-1.9 0 -2.96 0.44 -3.36 1.3 c-0.18 0.4 -0.86 0.34 -0.78 0 c0.18 -0.72 0.34 -1.34 0.46 -2.4 c0.04 -0.38 0.26 -0.36 0.62 -0.32 c0.92 0.1 1.76 0.14 5.56 0.14 s5.14 -0.04 6.1 -0.14 c0.36 -0.04 0.7 -0.06 0.58 0.32 c-0.3 0.94 -0.5 1.68 -0.62 2.4 c-0.06 0.34 -0.6 0.36 -0.68 0 c-0.2 -0.84 -1.08 -1.3 -2.8 -1.3 l-0.62 0 c-0.48 0 -0.78 0.16 -0.78 0.66 l0 9.86 c0 1.08 0.92 1.36 2.3 1.54 c0.16 0.02 0.04 0.66 -0.14 0.66 l-6.8 0 z M133.5 20.32 c-4.16 0 -7.22 -3.08 -7.22 -7.24 c0 -4.04 2.88 -7.4 7.26 -7.4 c4.18 0 7.22 3.06 7.22 7.22 c0 4.06 -2.86 7.42 -7.26 7.42 z M134.28 18.96 c1.76 0 4.1 -1.16 4.1 -4.94 c0 -4.04 -2.74 -6.98 -5.62 -6.98 c-1.76 0 -4.08 1.16 -4.08 4.92 c0 4.08 2.74 7 5.6 7 z M160.14000000000001 6 c0.24 0 0.3 0.64 0.06 0.68 c-0.78 0.12 -1.46 0.68 -2.38 2.12 l-3.2 5 l0 3.72 c0 1.4 0.8 1.64 2.04 1.8 c0.14 0.02 0.04 0.68 -0.12 0.68 l-6.26 0 c-0.16 0 -0.26 -0.66 -0.12 -0.68 c1.32 -0.18 2.06 -0.44 2.06 -1.8 l0 -3.64 l-3.36 -5.06 c-0.92 -1.38 -1.48 -2 -2.34 -2.14 c-0.26 -0.04 -0.2 -0.68 0.06 -0.68 l5.28 0 c0.26 0 0.3 0.64 0.06 0.68 c-0.88 0.14 -1.22 0.82 -0.36 2.12 l2.54 3.78 l2.44 -3.78 c0.84 -1.3 0.34 -1.96 -0.72 -2.12 c-0.28 -0.04 -0.2 -0.68 0.04 -0.68 l4.28 0 z M169.28 20.32 c-4.16 0 -7.22 -3.08 -7.22 -7.24 c0 -4.04 2.88 -7.4 7.26 -7.4 c4.18 0 7.22 3.06 7.22 7.22 c0 4.06 -2.86 7.42 -7.26 7.42 z M170.06 18.96 c1.76 0 4.1 -1.16 4.1 -4.94 c0 -4.04 -2.74 -6.98 -5.62 -6.98 c-1.76 0 -4.08 1.16 -4.08 4.92 c0 4.08 2.74 7 5.6 7 z M186.02 20.32 c-2.82 0 -5.98 -1.5 -5.98 -5.56 l0 -6.28 c0 -1.26 -0.64 -1.68 -1.62 -1.8 c-0.16 -0.02 -0.04 -0.68 0.12 -0.68 l5.46 0 c0.16 0 0.28 0.66 0.12 0.68 c-0.8 0.1 -1.6 0.4 -1.6 1.8 l0 6.38 c0 2.8 1.62 4.1 3.74 4.1 c2.18 0 3.92 -1.3 3.92 -4.1 l0 -6.38 c0 -1.3 -0.74 -1.66 -1.72 -1.8 c-0.14 -0.02 -0.04 -0.68 0.12 -0.68 l4.5 0 c0.14 0 0.26 0.66 0.1 0.68 c-0.8 0.1 -1.6 0.4 -1.6 1.8 l0 6.26 c0 3.68 -2.38 5.58 -5.56 5.58 z M209.46 19.5 c0.16 0 0.12 0.54 0 0.58 c-1.26 0.42 -3 0.36 -4.2 -1.18 l-3.08 -3.96 c-0.86 -1.12 -1.88 -1.28 -3.28 -1.3 l0 3.88 c0 1.4 0.96 1.64 2.24 1.8 c0.14 0.02 0.04 0.68 -0.12 0.68 l-6.06 0 c-0.16 0 -0.28 -0.66 -0.12 -0.68 c1.02 -0.14 1.66 -0.54 1.66 -1.8 l0 -8.92 c0 -1.32 -0.7 -1.7 -1.66 -1.96 c-0.16 -0.04 -0.06 -0.7 0.12 -0.68 c0.78 0.1 1.66 0.12 2.3 0.12 c1.48 0 2.86 -0.12 3.82 -0.12 c3.02 0 5.04 1.24 5.04 3.7 c0 2.32 -1.88 3.46 -3.56 3.56 l0 0.1 c0.8 0 1.38 0.34 2.26 1.44 l2.98 3.74 c0.62 0.78 1.22 1 1.66 1 z M199.48000000000002 12.719999999999999 c2.98 0 4.12 -0.52 4.12 -2.52 c0 -2.14 -1.36 -3.2 -3.14 -3.2 c-1.18 0 -1.56 0.48 -1.56 1.6 l0 4.12 l0.58 0 z M223.10000000000002 12.379999999999999 c1.86 0 3.66 1.34 3.66 3.58 c0 2.48 -2.26 4.08 -5.6 4.08 c-0.96 0 -2.08 -0.12 -3.56 -0.12 c-1.26 0 -2.22 0.02 -3.14 0.12 c-0.18 0.02 -0.28 -0.68 -0.12 -0.72 c1.16 -0.3 2.06 -0.48 2.06 -1.96 l0 -8.88 c0 -1.28 -0.82 -1.62 -1.68 -1.84 c-0.16 -0.04 -0.06 -0.7 0.1 -0.68 c0.82 0.1 1.78 0.12 2.42 0.12 c1.6 0 2.78 -0.12 3.66 -0.12 c2.58 0 4.7 1.08 4.72 3.28 c0.02 1.62 -1.12 2.74 -2.52 3.02 l0 0.12 z M220.22000000000003 7 c-1.06 0 -1.42 0.36 -1.42 1.48 l0 3.56 l2.06 0 c1.44 0 2.28 -0.72 2.28 -2.26 c0 -1.9 -1.28 -2.78 -2.92 -2.78 z M221.10000000000002 19 c1.76 0 3.08 -0.52 3.08 -2.6 c0 -2.2 -1.46 -3.36 -3.32 -3.36 l-2.06 0 l0 4.32 c0 1.1 0.56 1.64 2.3 1.64 z M243.36 19.5 c0.16 0 0.12 0.54 0 0.58 c-1.26 0.42 -3 0.36 -4.2 -1.18 l-3.08 -3.96 c-0.86 -1.12 -1.88 -1.28 -3.28 -1.3 l0 3.88 c0 1.4 0.96 1.64 2.24 1.8 c0.14 0.02 0.04 0.68 -0.12 0.68 l-6.06 0 c-0.16 0 -0.28 -0.66 -0.12 -0.68 c1.02 -0.14 1.66 -0.54 1.66 -1.8 l0 -8.92 c0 -1.32 -0.7 -1.7 -1.66 -1.96 c-0.16 -0.04 -0.06 -0.7 0.12 -0.68 c0.78 0.1 1.66 0.12 2.3 0.12 c1.48 0 2.86 -0.12 3.82 -0.12 c3.02 0 5.04 1.24 5.04 3.7 c0 2.32 -1.88 3.46 -3.56 3.56 l0 0.1 c0.8 0 1.38 0.34 2.26 1.44 l2.98 3.74 c0.62 0.78 1.22 1 1.66 1 z M233.38000000000002 12.719999999999999 c2.98 0 4.12 -0.52 4.12 -2.52 c0 -2.14 -1.36 -3.2 -3.14 -3.2 c-1.18 0 -1.56 0.48 -1.56 1.6 l0 4.12 l0.58 0 z M253.48000000000002 20.32 c-4.78 0 -8.62 -2.36 -8.62 -7.06 c0 -3.82 2.62 -7.58 8.18 -7.58 c2.44 0 4.34 0.72 4.1 1.4 l-0.3 0.84 c-0.7 1.98 -1.5 -0.62 -5.24 -0.62 c-3.1 0 -4.52 1.78 -4.52 4.8 c0 4.5 3.06 6.94 5.82 6.94 c1.44 0 1.98 -0.7 1.98 -1.84 l0 -0.36 c0 -1.52 -0.68 -2.02 -2.28 -2.26 c-0.26 -0.04 -0.02 -0.76 0.42 -0.76 l5.14 0 c0.56 0 0.36 0.7 0.14 0.76 c-0.74 0.2 -1.24 0.62 -1.24 1.9 l0 0.7 c0 0.48 0.04 0.9 0.42 1.52 c-1.2 0.66 -3.52 1.62 -4 1.62 z M273.90000000000003 6 c0.24 0 0.3 0.64 0.06 0.68 c-0.78 0.12 -1.46 0.68 -2.38 2.12 l-3.2 5 l0 3.72 c0 1.4 0.8 1.64 2.04 1.8 c0.14 0.02 0.04 0.68 -0.12 0.68 l-6.26 0 c-0.16 0 -0.26 -0.66 -0.12 -0.68 c1.32 -0.18 2.06 -0.44 2.06 -1.8 l0 -3.64 l-3.36 -5.06 c-0.92 -1.38 -1.48 -2 -2.34 -2.14 c-0.26 -0.04 -0.2 -0.68 0.06 -0.68 l5.28 0 c0.26 0 0.3 0.64 0.06 0.68 c-0.88 0.14 -1.22 0.82 -0.36 2.12 l2.54 3.78 l2.44 -3.78 c0.84 -1.3 0.34 -1.96 -0.72 -2.12 c-0.28 -0.04 -0.2 -0.68 0.04 -0.68 l4.28 0 z"></path></g>
			</g>
		</svg>
	